<svg width="24" height="24" viewBox="0 0 24 24" fill="none" xmlns="http://www.w3.org/2000/svg">
<path d="M11.9555 5.659C11.9965 4.543 12.3105 3.563 12.8885 2.744C13.47 1.9205 14.4315 1.3355 15.747 1.004L15.7745 1.1255V1.3375C15.7745 1.818 15.658 2.3695 15.428 2.9755C15.1865 3.5625 14.8095 4.1155 14.309 4.614C13.841 5.0535 13.4075 5.344 13.0245 5.4755C12.8985 5.5135 12.725 5.5505 12.5155 5.584C12.3295 5.613 12.1428 5.638 11.9555 5.659Z" fill="black"/>
<path d="M12.175 7.3145C10.689 7.3145 9.65699 5.9995 8.1905 5.9995C6.72449 5.9995 3.70399 7.3475 3.70399 11.9995C3.70399 16.6525 6.38649 19.6495 6.68649 19.9995C6.98649 20.35 7.67999 21.2495 8.75499 21.2495C9.83 21.2495 11.0065 20.395 12.175 20.395C13.3435 20.395 14.8145 21.25 15.775 21.25C16.735 21.25 17.13 20.8585 17.783 20.183C18.436 19.5075 19.683 17.448 20.118 16.211C19.4015 15.784 17.501 14.626 17.501 12C17.501 10.2497 18.1407 8.7955 19.42 7.6375C18.5807 6.54583 17.6073 6 16.5 6C14.8385 6 13.6615 7.3145 12.175 7.3145Z" fill="black" stroke="black" stroke-width="2" stroke-linejoin="round"/>
</svg>
